<?xml version="1.0" encoding="utf-8"?>
<!-- Generator: Adobe Illustrator 25.0.1, SVG Export Plug-In . SVG Version: 6.00 Build 0)  -->
<svg version="1.1" id="Calque_1" xmlns="http://www.w3.org/2000/svg" xmlns:xlink="http://www.w3.org/1999/xlink" x="0px" y="0px"
	 viewBox="0 0 283.5 93.5" style="enable-background:new 0 0 283.5 93.5;" xml:space="preserve">
<style type="text/css">
	.st0{fill:#00448C;}
	.st1{fill:#2B96D4;}
	.st2{fill:#FFFFFF;}
</style>
<g>
	<path class="st0" d="M144.3,38.5V7.8c0-4.7-3.9-7.8-7.7-7.8H0.6v38.5H144.3z"/>
	<path class="st1" d="M0.6,45.1c0,5.2,4.3,7.8,7.7,7.8h136V40H0.6V45.1z"/>
	<path class="st1" d="M154,91.4c0,1.5,1.2,2.2,2.2,2.2h127.3v-2.2H154L154,91.4z"/>
	<rect x="0.6" y="38.5" class="st2" width="143.7" height="1.6"/>
	<path class="st2" d="M105.5,22.8c0,0.9,0.4,1.2,1.2,1.2h8.8v1.6h-9.4c-3.4,0-5-1.2-5-3.6v-9.2h4.4V22.8z"/>
	<path class="st2" d="M78.7,12.5V12c-4.6,0-7.7,2.1-10.9,5.1c-1.5-1.3-2.6-2.2-2.9-2.5c-1.5-1.3-1.7-1.7-3.8-1.7h-3.6
		c3.7,3.2,6.1,5.4,7.8,6.9c-3.1,3.1-7.3,7.9-11.6,7.7v0.5c3.8,0.4,8-1.3,13.3-6.7c2,1.7,2.3,2,3.1,2.6c2.1,1.7,1.8,1.8,4.1,1.8h3.5
		c0,0-4.6-4-8.2-7.2C71.8,15.7,75.1,12.5,78.7,12.5"/>
	<path class="st2" d="M40.6,18.2c0.1-3.5,1-4.1,3.2-4.1h2.7c2.1,0,3.1,0.6,3.2,4.1H40.6z M54.1,19.6c0-0.2,0-0.4,0-0.6
		c0-5.5-3.9-6.5-8.9-6.5h-0.4c-4,0-8.8,1.1-8.8,6.5c0,5.6,4,6.6,6.6,6.6H53v-1.6h-9.3c-2.8,0-3.1-1.1-3.2-4.4H54.1z"/>
	<path class="st2" d="M84.1,18.2c0.1-3.5,1-4.1,3.2-4.1h2.7c2.1,0,3.1,0.6,3.2,4.1H84.1z M97.7,19.6c0-0.2,0-0.4,0-0.6
		c0-5.5-3.9-6.5-8.9-6.5h-0.4c-4,0-8.8,1.1-8.8,6.5c0,5.6,4,6.6,6.6,6.6h10.4v-1.6h-9.3c-2.8,0-3.1-1.1-3.2-4.4H97.7z"/>
	<path class="st2" d="M29.3,20.2c1.8-0.5,2.9-1.8,2.9-3.8c0-2.9-2.5-3.6-5.1-3.6H15v12.8h4.4v-4.9h5.4c1.9,0,3.1,0.1,3.1,4.9l4.4,0
		C32.4,22.7,31.1,21.1,29.3,20.2 M19.4,14.2H26c2.3,0,2.1,5-0.3,5h-6.3V14.2z"/>
	<g>
		<path class="st0" d="M11.8,83.1l-0.1-0.7c-2,0.5-4.6,1.1-6.6,1.1c-1.3,0-2.7-0.1-3.7-0.9C0.5,81.9,0,80.9,0,79.6
			c0-1.4,0.6-2.6,2.1-3.3c1.2-0.5,2.7-0.6,4.2-0.6c1.4,0,3.3,0.1,5,0.2v-0.3c0-2.4-1.4-3.3-5-3.3c-1.4,0-3,0.1-4.5,0.2v-1.8
			c1.6-0.1,3.3-0.2,4.8-0.2c2,0,4.1,0.2,5.4,1.2c1.4,1.1,1.6,2.4,1.6,4.2v7.2H11.8z M11.3,77.6c-1.6-0.1-3.4-0.2-5.1-0.2
			c-3,0-3.9,0.7-3.9,2.1c0,1.4,0.9,2.1,3.2,2.1c1.8,0,3.9-0.4,5.8-0.9V77.6z"/>
		<path class="st0" d="M41.5,83.1l-4.3-9.4h-0.1l-4.2,9.4h-2.4l-5-12.2H28l3.8,9.6h0.1l4.2-9.6h2.4l4.3,9.6h0.1l3.7-9.6h2.4l-5,12.2
			H41.5z"/>
		<path class="st0" d="M64.3,82.1c-1.4,1-3.4,1.3-5.6,1.3c-2.3,0-4.2-0.3-5.7-1.3c-1.6-1.1-2.2-2.9-2.2-5.2c0-2.2,0.6-4,2.2-5.2
			c1.4-1,3.3-1.3,5.7-1.3c2.3,0,4.2,0.3,5.6,1.3c1.6,1.1,2.2,2.9,2.2,5.1C66.6,79.2,65.9,81,64.3,82.1z M58.7,72.4
			c-3.8,0-5.5,1.2-5.5,4.5c0,3.2,1.6,4.7,5.5,4.7c3.8,0,5.4-1.2,5.4-4.5C64.1,73.8,62.5,72.4,58.7,72.4z"/>
		<path class="st0" d="M70.3,83.1V70.8h1.9l0.1,0.8c2.4-0.6,3.9-1.1,6.1-1.1c0,0,0.1,0,0.3,0v2.1c-0.2,0-0.5,0-0.7,0
			c-1.8,0-3,0.2-5.3,0.8v9.7H70.3z"/>
		<path class="st0" d="M82,83.1V65.7h2.3v17.4H82z"/>
		<path class="st0" d="M101,83.1l-0.1-0.8c-2,0.5-4.6,1.1-6.5,1.1c-1.6,0-3.1-0.2-4.4-1.3C88.5,80.9,88,79,88,77
			c0-2.3,0.8-4.3,2.7-5.4c1.4-0.8,3.3-1.1,5.1-1.1c1.6,0,3.1,0.2,4.7,0.7v-5.5h2.3v17.4H101z M100.5,73.1c-1.4-0.5-2.9-0.7-4.5-0.7
			c-3.9,0-5.6,1.3-5.6,4.6c0,3.2,1.5,4.5,4.3,4.5c1.7,0,3.8-0.4,5.8-0.8V73.1z"/>
		<path class="st0" d="M128.7,82.1c-1.4,1-3.4,1.3-5.6,1.3c-2.3,0-4.2-0.3-5.7-1.3c-1.6-1.1-2.2-2.9-2.2-5.2c0-2.2,0.6-4,2.2-5.2
			c1.4-1,3.3-1.3,5.7-1.3c2.3,0,4.2,0.3,5.6,1.3c1.6,1.1,2.2,2.9,2.2,5.1C130.9,79.2,130.3,81,128.7,82.1z M123,72.4
			c-3.8,0-5.5,1.2-5.5,4.5c0,3.2,1.6,4.7,5.5,4.7c3.8,0,5.4-1.2,5.4-4.5C128.5,73.8,126.8,72.4,123,72.4z"/>
		<path class="st0" d="M135.2,83.1V72.7h-2.7v-1.9h2.7c0-1.6,0.2-3.2,1.6-4.3c1.1-0.9,2.6-1.2,4.1-1.2c1.1,0,2.1,0.1,3.2,0.2v1.9
			c-0.9-0.1-1.9-0.2-2.9-0.2c-3,0-3.8,1-3.8,3.5h5.2v1.9h-5.2v10.4H135.2z"/>
		<path class="st0" d="M160.1,83.4c-2.2,0-3.9-0.3-5.1-1.4c-1.5-1.2-1.9-3-1.9-5.1c0-1.9,0.6-4,2.3-5.2c1.4-1,3.2-1.3,5-1.3
			c1.6,0,3.6,0.2,5.1,1.2c1.9,1.3,2.1,3.4,2.1,5.8h-12.1c0.1,2.2,1,4,5.1,4c2.2,0,4.4-0.3,6.4-0.7v1.8
			C164.8,83,162.4,83.4,160.1,83.4z M160.3,72.2c-3.4,0-4.7,1.4-4.9,3.6h9.7C165.1,73.4,163.8,72.2,160.3,72.2z"/>
		<path class="st0" d="M183.2,83.1v-7.2c0-2.5-1.4-3.3-3.6-3.3c-1.8,0-3.9,0.4-5.8,0.9v9.7h-2.3V70.8h1.9l0.1,0.8
			c2.1-0.5,4.6-1.1,6.6-1.1c1.5,0,3,0.2,4.1,1.3c1,0.9,1.3,2.1,1.3,3.7v7.6H183.2z"/>
		<path class="st0" d="M196.1,83.4c-2.2,0-3.9-0.3-5.1-1.4c-1.5-1.2-1.9-3-1.9-5.1c0-1.9,0.6-4,2.3-5.2c1.4-1,3.2-1.3,5-1.3
			c1.6,0,3.6,0.2,5.1,1.2c1.9,1.3,2.1,3.4,2.1,5.8h-12.1c0.1,2.2,1,4,5.1,4c2.2,0,4.4-0.3,6.4-0.7v1.8
			C200.8,83,198.4,83.4,196.1,83.4z M196.3,72.2c-3.4,0-4.7,1.4-4.9,3.6h9.7C201.1,73.4,199.8,72.2,196.3,72.2z"/>
		<path class="st0" d="M207.5,83.1V70.8h1.9l0.1,0.8c2.4-0.6,3.9-1.1,6.1-1.1c0,0,0.1,0,0.3,0v2.1c-0.2,0-0.5,0-0.7,0
			c-1.8,0-3,0.2-5.3,0.8v9.7H207.5z"/>
		<path class="st0" d="M229.2,86.5c-1.5,1.2-3.7,1.4-6.4,1.4c-1.6,0-3.2-0.1-4.8-0.2v-1.9c1.4,0.1,3.3,0.2,4.8,0.2
			c1.9,0,3.4-0.1,4.4-0.8c1-0.6,1.3-1.6,1.3-2.9v-0.6c-1.8,0.4-4,0.9-5.8,0.9c-1.4,0-2.8-0.2-4-1.2c-1.4-1.1-1.9-2.9-1.9-4.9
			c0-2.1,0.8-4,2.5-5c1.4-0.8,3.1-1,4.8-1c1.6,0,3.3,0.3,5,0.8l0.1-0.5h1.6v11.4C230.9,84.1,230.5,85.5,229.2,86.5z M228.6,73
			c-1.3-0.4-2.7-0.7-4-0.7c-3.6,0-5.2,1.2-5.2,4.2c0,2.9,1.4,4.1,4,4.1c1.6,0,3.4-0.4,5.2-0.8V73z"/>
		<path class="st0" d="M234.6,87.8v-1.9c0.7,0.1,1.4,0.1,1.9,0.1c1.6,0,2.6-0.5,3.4-2.1l0.4-0.8l-6.6-12.2h2.7l5,9.8h0.1l4.7-9.8
			h2.5l-6.6,13.5c-1.3,2.6-2.7,3.6-5.4,3.6C236,87.9,235.3,87.8,234.6,87.8z"/>
	</g>
</g>
</svg>
